# xmcd
#
# Track frame offsets: 
#        150
#        18135
#        32313
#        53778
#        74330
#        88963
#        109770
#        120188
#        132708
#        145651
#        160003
#        173498
#        189818
#        206126
#        220178
#        242241
#
# Disc length: 3434 seconds
#
# Revision: 0
# Processed by: cddbd v1.5.2PL0 Copyright (c) Steve Scherf et al.
# Submitted via: ExactAudioCopy v1.0b4
#
DISCID=d40d6810
DTITLE=Elvin Bishop - She Puts Me In The Mood
DYEAR=2012
DGENRE=Blues Rock, Modern Electric Blues
TTITLE0=I'm Gone
TTITLE1=Middle Aged Man
TTITLE2=Long Shadows
TTITLE3=Home Of The Blues
TTITLE4=Think
TTITLE5=Another Mule Kickin' In Your Stall
TTITLE6=Ace In The Hole
TTITLE7=Kissing In The Dark
TTITLE8=Don't Let The Bossman Get You Down
TTITLE9=Come On In This House
TTITLE10=Devil's Slide
TTITLE11=She Puts Me In The Mood
TTITLE12=Midnight Hour Blues
TTITLE13=Honest I Do
TTITLE14=Slow Down (Live Feat. Little Smokey Smothers)
TTITLE15=The Skin They're In (Live Feat. Little Smokey Smothers)
EXTD=
EXTT0=
EXTT1=
EXTT2=
EXTT3=
EXTT4=
EXTT5=
EXTT6=
EXTT7=
EXTT8=
EXTT9=
EXTT10=
EXTT11=
EXTT12=
EXTT13=
EXTT14=
EXTT15=
PLAYORDER=
